<svg width="24" height="24" viewBox="0 0 24 24" fill="none" xmlns="http://www.w3.org/2000/svg">
<path d="M17.4118 9.41176C16.6275 10.1961 15.3725 10.1961 14.5882 9.41176C13.8039 8.62745 13.8039 7.37255 14.5882 6.58824C15.3725 5.80392 16.6275 5.80392 17.4118 6.58824C18.1961 7.35686 18.1961 8.62745 17.4118 9.41176Z" fill="#828BA1"/>
<path d="M10.0406 4.04482C8.22642 5.85921 7.61684 8.41386 8.2119 10.7218L2 16.9342V22H7.06531V19.4889H9.56168V16.9923H12.0726L13.2772 15.7875C15.5849 16.3681 18.1393 15.7585 19.9536 13.9586C22.6821 11.2298 22.6821 6.78817 19.9536 4.05933C17.2104 1.31598 12.7837 1.31598 10.0406 4.04482Z" stroke="#828BA1" stroke-width="2" stroke-miterlimit="10"/>
</svg>
