<svg width="24" height="24" viewBox="0 0 24 24" fill="none" xmlns="http://www.w3.org/2000/svg">
<path d="M6.32513 12.7824H8.95589V23.6129C8.95589 23.8267 9.12914 24 9.34299 24H13.8036C14.0174 24 14.1907 23.8267 14.1907 23.6129V12.8334H17.215C17.4116 12.8334 17.5771 12.6859 17.5996 12.4905L18.0589 8.50331C18.0715 8.39363 18.0368 8.28375 17.9633 8.20144C17.8899 8.11908 17.7848 8.07192 17.6744 8.07192H14.1908V5.5725C14.1908 4.81908 14.5965 4.437 15.3968 4.437C15.5108 4.437 17.6744 4.437 17.6744 4.437C17.8883 4.437 18.0615 4.26366 18.0615 4.04991V0.389953C18.0615 0.176109 17.8883 0.00285937 17.6744 0.00285937H14.5354C14.5133 0.00178125 14.4641 0 14.3917 0C13.847 0 11.9539 0.106922 10.4584 1.48266C8.80149 3.00722 9.03183 4.83258 9.08686 5.14908V8.07183H6.32508C6.11124 8.07183 5.93799 8.24508 5.93799 8.45892V12.3953C5.93804 12.609 6.11128 12.7824 6.32513 12.7824Z" fill="white"/>
</svg>
