<svg width="24" height="20" viewBox="0 0 24 20" fill="none" xmlns="http://www.w3.org/2000/svg">
<path fill-rule="evenodd" clip-rule="evenodd" d="M24 2.36765C23.1182 2.76924 22.1687 3.04081 21.1728 3.16216C22.1898 2.53811 22.9702 1.54856 23.3379 0.3698C22.3856 0.947625 21.3333 1.36801 20.2092 1.59336C19.3132 0.612499 18.0328 0 16.6156 0C13.8982 0 11.6936 2.26074 11.6936 5.04876C11.6936 5.44457 11.7359 5.82882 11.8204 6.19863C7.72814 5.98773 4.10071 3.97977 1.6707 0.921631C1.24668 1.66992 1.00439 2.5381 1.00439 3.46262C1.00439 5.21343 1.87356 6.75913 3.19492 7.66487C2.38915 7.64031 1.62843 7.41062 0.963525 7.03503V7.09714C0.963525 9.54424 2.66102 11.5854 4.91494 12.0477C4.50219 12.1661 4.0669 12.2253 3.61753 12.2253C3.30057 12.2253 2.99068 12.195 2.69062 12.1358C3.3175 14.1408 5.13473 15.6013 7.29004 15.6403C5.60524 16.9953 3.48089 17.8028 1.17485 17.8028C0.777601 17.8028 0.384574 17.7797 0 17.7335C2.17926 19.1636 4.76844 20 7.5478 20C16.6057 20 21.5573 12.3077 21.5573 5.63525C21.5573 5.41568 21.5531 5.1961 21.5446 4.98086C22.5068 4.26869 23.3421 3.38029 24 2.36765Z" fill="#D8E0F2"/>
</svg>
