<svg width="25" height="17" viewBox="0 0 25 17" fill="none" xmlns="http://www.w3.org/2000/svg">
<path fill-rule="evenodd" clip-rule="evenodd" d="M23.4396 1.26474C23.8111 1.64781 24.075 2.12216 24.2046 2.63986C24.5507 4.55834 24.7187 6.5047 24.7064 8.45411C24.7133 10.3744 24.5454 12.2913 24.2046 14.1811C24.075 14.6988 23.8111 15.1731 23.4396 15.5562C23.068 15.9393 22.6019 16.2175 22.0884 16.3628C20.2121 16.8646 12.707 16.8646 12.707 16.8646C12.707 16.8646 5.20197 16.8646 3.3257 16.3628C2.82262 16.2251 2.36355 15.9601 1.99284 15.5932C1.62212 15.2263 1.3523 14.77 1.20945 14.2684C0.863393 12.3499 0.695415 10.4035 0.707655 8.45411C0.698095 6.51927 0.866063 4.58764 1.20945 2.6835C1.33903 2.16579 1.60293 1.69145 1.97451 1.30838C2.34609 0.925305 2.81218 0.647077 3.3257 0.501792C5.20197 0 12.707 0 12.707 0C12.707 0 20.2121 0 22.0884 0.458158C22.6019 0.603443 23.068 0.881671 23.4396 1.26474ZM16.525 8.45405L10.2526 12.0211V4.88696L16.525 8.45405Z" fill="#D8E0F2"/>
</svg>
